<svg width="256" height="256" viewBox="0 0 256 256" fill="none" xmlns="http://www.w3.org/2000/svg">
<rect width="256" height="256" fill="#4E2262"/>
<path d="M75.7969 149.695C75.7969 150.945 75.5755 152.286 75.1328 153.719C74.7161 155.151 74.013 156.479 73.0234 157.703C72.0599 158.927 70.7969 159.956 69.2344 160.789C67.6719 161.596 65.7578 162 63.4922 162H24.9375C24.2083 162 23.5312 161.87 22.9062 161.609C22.2812 161.349 21.7344 160.997 21.2656 160.555C20.8229 160.086 20.4714 159.539 20.2109 158.914C19.9505 158.289 19.8203 157.612 19.8203 156.883V111.102C19.8203 110.398 19.9505 109.734 20.2109 109.109C20.4714 108.484 20.8229 107.938 21.2656 107.469C21.7344 107 22.2812 106.635 22.9062 106.375C23.5312 106.115 24.2083 105.984 24.9375 105.984H58.9219C60.1719 105.984 61.513 106.206 62.9453 106.648C64.3776 107.091 65.7057 107.807 66.9297 108.797C68.1797 109.76 69.2083 111.023 70.0156 112.586C70.849 114.148 71.2656 116.062 71.2656 118.328V120.242C71.2656 122.039 70.9661 123.979 70.3672 126.062C69.7682 128.12 68.8047 130.073 67.4766 131.922C68.6224 132.625 69.6901 133.471 70.6797 134.461C71.6953 135.451 72.5807 136.596 73.3359 137.898C74.0911 139.201 74.6901 140.672 75.1328 142.312C75.5755 143.953 75.7969 145.763 75.7969 147.742V149.695ZM65.6406 147.742C65.6406 146.414 65.4323 145.229 65.0156 144.188C64.599 143.12 64.013 142.208 63.2578 141.453C62.5026 140.698 61.5911 140.125 60.5234 139.734C59.4557 139.318 58.2578 139.109 56.9297 139.109H34.0391V128.875H52.3594C53.6875 128.875 54.8854 128.68 55.9531 128.289C57.0208 127.872 57.9323 127.286 58.6875 126.531C59.4427 125.776 60.0156 124.878 60.4062 123.836C60.8229 122.768 61.0312 121.57 61.0312 120.242V118.328C61.0312 116.87 60.3281 116.141 58.9219 116.141H29.9766V151.844H63.4922C63.6745 151.844 63.8958 151.831 64.1562 151.805C64.4167 151.779 64.651 151.701 64.8594 151.57C65.0677 151.44 65.25 151.219 65.4062 150.906C65.5625 150.594 65.6406 150.164 65.6406 149.617V147.742Z" fill="white"/>
<path d="M130.484 162H120.328V133.992C120.328 132.664 119.99 131.661 119.312 130.984C118.635 130.281 117.62 129.93 116.266 129.93H97.9453V119.773H116.266C117.229 119.773 118.245 119.891 119.312 120.125C120.38 120.333 121.435 120.672 122.477 121.141C123.544 121.609 124.56 122.221 125.523 122.977C126.487 123.706 127.333 124.604 128.062 125.672C128.792 126.714 129.378 127.924 129.82 129.305C130.263 130.685 130.484 132.247 130.484 133.992V162ZM93.8438 162H83.6875V101.922H93.8438V162Z" fill="white"/>
<path d="M183.375 148.016C183.375 149.422 183.128 150.945 182.633 152.586C182.138 154.201 181.331 155.711 180.211 157.117C179.117 158.497 177.672 159.656 175.875 160.594C174.104 161.531 171.943 162 169.391 162H151.07C149.664 162 148.141 161.753 146.5 161.258C144.885 160.763 143.375 159.969 141.969 158.875C140.589 157.755 139.43 156.31 138.492 154.539C137.555 152.742 137.086 150.568 137.086 148.016C137.086 146.609 137.333 145.086 137.828 143.445C138.323 141.805 139.117 140.294 140.211 138.914C141.331 137.508 142.776 136.336 144.547 135.398C146.344 134.461 148.518 133.992 151.07 133.992H169.391V143.68H151.07C149.69 143.68 148.622 144.109 147.867 144.969C147.112 145.802 146.734 146.844 146.734 148.094C146.734 149.422 147.164 150.464 148.023 151.219C148.909 151.948 149.951 152.312 151.148 152.312H169.391C170.771 152.312 171.839 151.896 172.594 151.062C173.349 150.229 173.727 149.188 173.727 147.938V133.758C173.727 132.43 173.31 131.375 172.477 130.594C171.669 129.812 170.641 129.422 169.391 129.422H147.086V119.773H169.391C170.797 119.773 172.307 120.021 173.922 120.516C175.562 121.01 177.073 121.818 178.453 122.938C179.859 124.031 181.031 125.477 181.969 127.273C182.906 129.044 183.375 131.206 183.375 133.758V148.016Z" fill="white"/>
<path d="M238.844 162H228.688V138.562C228.688 137.234 228.453 136.049 227.984 135.008C227.542 133.94 226.93 133.029 226.148 132.273C225.367 131.518 224.443 130.945 223.375 130.555C222.333 130.138 221.201 129.93 219.977 129.93H202.203V162H192.047V124.812C192.047 124.109 192.177 123.458 192.438 122.859C192.698 122.234 193.062 121.701 193.531 121.258C194 120.789 194.547 120.424 195.172 120.164C195.797 119.904 196.461 119.773 197.164 119.773H220.055C221.331 119.773 222.672 119.917 224.078 120.203C225.51 120.49 226.917 120.958 228.297 121.609C229.703 122.234 231.031 123.042 232.281 124.031C233.557 124.995 234.677 126.18 235.641 127.586C236.63 128.966 237.411 130.568 237.984 132.391C238.557 134.214 238.844 136.271 238.844 138.562V162Z" fill="white"/>
</svg>
